# xmcd CD database file
#
# Track frame offsets:
#	150
#	13283
#	24198
#	36938
#	60408
#	76915
#	89243
#	102378
#	112733
#	126785
#	137948
#	151668
#	166523
#	178985
#
# Disc length: 2594 seconds
#
# Revision: 1
# Processed by: cddbd v1.5.1PL0 Copyright (c) Steve Scherf et al.
# Submitted via: CDex 1.51
#
DISCID=ab0a200e
DTITLE=Muddy Waters - 28 Great Blues Songs CD 1/2
DYEAR=1993
DGENRE=Blues
TTITLE0=Mannish Boy
TTITLE1=I Feel So Good
TTITLE2=40 Days and 40 Nights
TTITLE3=Long Distance Call
TTITLE4=I Got My Mojo Working
TTITLE5=All Abroad
TTITLE6=Close to You
TTITLE7=Diamonds at Your Feet
TTITLE8=Rollin' Stone
TTITLE9=I Can't Call Her Sugar
TTITLE10=I'm Ready
TTITLE11=Iodine in My Coffee
TTITLE12=Mean Mistreater
TTITLE13=I Can't Be Satisfied
EXTD=YEAR: 1993
EXTT0=
EXTT1=
EXTT2=
EXTT3=
EXTT4=
EXTT5=
EXTT6=
EXTT7=
EXTT8=
EXTT9=
EXTT10=
EXTT11=
EXTT12=
EXTT13=
PLAYORDER=
